<svg width="29" height="32" viewBox="0 0 29 32" fill="none" xmlns="http://www.w3.org/2000/svg">
<path d="M4.8 32C3.46667 32 2.33333 31.5333 1.4 30.6C0.466667 29.6667 0 28.5333 0 27.2V25.6C0 24.72 0.313333 23.9667 0.94 23.34C1.56667 22.7133 2.32 22.4 3.2 22.4H4.8V3.2C4.8 2.32 5.11333 1.56667 5.74 0.94C6.36667 0.313333 7.12 0 8 0H25.6C26.48 0 27.2333 0.313333 27.86 0.94C28.4867 1.56667 28.8 2.32 28.8 3.2V27.2C28.8 28.5333 28.3333 29.6667 27.4 30.6C26.4667 31.5333 25.3333 32 24 32H4.8ZM24 28.8C24.4533 28.8 24.8333 28.6467 25.14 28.34C25.4467 28.0333 25.6 27.6533 25.6 27.2V3.2H8V22.4H19.2C20.08 22.4 20.8333 22.7133 21.46 23.34C22.0867 23.9667 22.4 24.72 22.4 25.6V27.2C22.4 27.6533 22.5533 28.0333 22.86 28.34C23.1667 28.6467 23.5467 28.8 24 28.8ZM11.2 11.2C10.7467 11.2 10.3667 11.0467 10.06 10.74C9.75333 10.4333 9.6 10.0533 9.6 9.6C9.6 9.14667 9.75333 8.76667 10.06 8.46C10.3667 8.15333 10.7467 8 11.2 8H22.4C22.8533 8 23.2333 8.15333 23.54 8.46C23.8467 8.76667 24 9.14667 24 9.6C24 10.0533 23.8467 10.4333 23.54 10.74C23.2333 11.0467 22.8533 11.2 22.4 11.2H11.2ZM11.2 16C10.7467 16 10.3667 15.8467 10.06 15.54C9.75333 15.2333 9.6 14.8533 9.6 14.4C9.6 13.9467 9.75333 13.5667 10.06 13.26C10.3667 12.9533 10.7467 12.8 11.2 12.8H22.4C22.8533 12.8 23.2333 12.9533 23.54 13.26C23.8467 13.5667 24 13.9467 24 14.4C24 14.8533 23.8467 15.2333 23.54 15.54C23.2333 15.8467 22.8533 16 22.4 16H11.2Z" fill="#18192E"/>
</svg>
