<svg width="20" height="25" viewBox="0 0 20 25" fill="none" xmlns="http://www.w3.org/2000/svg">
<path d="M16.4192 8.5H14.1667V1.41667C14.1667 0.6375 13.5292 0 12.75 0H7.08333C6.30417 0 5.66667 0.6375 5.66667 1.41667V8.5H3.41417C2.15333 8.5 1.51583 10.03 2.40833 10.9225L8.91083 17.425C9.46333 17.9775 10.3558 17.9775 10.9083 17.425L17.4108 10.9225C18.3033 10.03 17.68 8.5 16.4192 8.5ZM0 22.6667C0 23.4458 0.6375 24.0833 1.41667 24.0833H18.4167C19.1958 24.0833 19.8333 23.4458 19.8333 22.6667C19.8333 21.8875 19.1958 21.25 18.4167 21.25H1.41667C0.6375 21.25 0 21.8875 0 22.6667Z" fill="#FFB347"/>
</svg>
