<svg xmlns="http://www.w3.org/2000/svg" viewBox="0 0 84.77 84.56"><g id="Capa_1" data-name="Capa 1"><path d="M54.85,57.5c.93-.9,1.88-1.79,2.8-2.7,1.45-1.43,2.87-2.91,4.36-4.32a2.26,2.26,0,0,1,1.38-.56c3.08-.05,6.17,0,9.26,0a10.62,10.62,0,0,1,11,10.9q.06,6.13,0,12.29A10.56,10.56,0,0,1,72.8,83.94q-31.12,0-62.25,0A10.55,10.55,0,0,1-.32,73q0-6.06,0-12.11a10.6,10.6,0,0,1,11-11c3.15,0,6.29,0,9.44,0a1.55,1.55,0,0,1,1,.34c2.4,2.35,4.76,4.73,7.13,7.11a2.19,2.19,0,0,1,.22.34H10.75c-2.31,0-3.25.95-3.26,3.24V73c0,2.18,1,3.17,3.15,3.17q31,0,62.07,0c2.18,0,3.15-1,3.16-3.15,0-4,0-8.07,0-12.11,0-2.26-1-3.16-3.23-3.16H55Z"/><path d="M45.93,48.18a7.47,7.47,0,0,1,.63-.85Q53.69,40.16,60.82,33a4,4,0,0,1,4.43-1.29c2.82,1,3.51,4.21,1.46,6.52l-.5.5L45,59.94c-2.22,2.22-4.33,2.22-6.56,0Q27.73,49.28,17.05,38.61c-1.21-1.21-2-2.61-1.38-4.39,1-2.87,4.21-3.59,6.56-1.53.2.18.39.38.57.57q7.05,7.05,14.08,14.12c.24.24.5.47.92.87V4.42A4,4,0,0,1,39.68.55C42.39-1,45.43.79,45.61,4c0,.26,0,.53,0,.8V48Z"/><path d="M66.66,63.06a3.88,3.88,0,0,1,3.88,3.82,3.9,3.9,0,1,1-7.79,0A3.84,3.84,0,0,1,66.66,63.06Z"/></g></svg>