<svg width="24" height="24" viewBox="0 0 24 24" fill="none" xmlns="http://www.w3.org/2000/svg">
<path d="M4.68179 19.3183V11.0432L12.793 2.93201H2.34089C1.0534 2.93201 0 3.98541 0 5.2729V21.6591C0 22.9466 1.0534 24 2.34089 24H18.7271C20.0146 24 21.068 22.9466 21.068 21.6591V11.2071L12.9568 19.3183H4.68179Z" fill="#18192E"/>
<path d="M7.02271 16.9773H11.9854L20.4126 8.5501L15.4499 3.5874L7.02271 12.0146V16.9773Z" fill="#18192E"/>
<path d="M23.3036 2.33504L21.6533 0.684711C20.7403 -0.228237 19.2538 -0.228237 18.3409 0.684711L17.1002 1.92538L22.0629 6.88808L23.3036 5.6474C24.2282 4.73446 24.2282 3.24799 23.3036 2.33504Z" fill="#18192E"/>
</svg>
