<svg xmlns="http://www.w3.org/2000/svg" viewBox="0 0 67.77 67.56">
  <path d="M67.67 19A6.41 6.41 0 0 0 66 15a5.23 5.23 0 0 0-4.11-1.68h-56A5.18 5.18 0 0 0 .92 16a7.27 7.27 0 0 0-1 3.6v35.28A5.75 5.75 0 0 0 6 61h55.66a5.76 5.76 0 0 0 6-6V19.62c.02-.21.02-.43.01-.62Zm-4 35.13-18.19-17 18.17-16.96c.12 5.71.15 28.21.05 33.94ZM37 39.42a4.71 4.71 0 0 1-6.55-.11q-8.08-7.44-16.15-14.92l-4-3.74-2.46-2.26-.92-.86h53.76l-4.18 3.91q-7.36 6.9-14.75 13.77C40.29 36.57 38.74 38 37 39.42Zm-25.54 13L25 39.8c.52.48 1.06 1 1.59 1.43s.78.68 1.16 1a8.73 8.73 0 0 0 11.93.09l2.88-2.55 18.36 17.16H6.68Zm10.64-15.3L3.92 54.1v-34Z" data-name="Capa 1" style="fill:#000000"/>
</svg>
