<svg xmlns="http://www.w3.org/2000/svg" viewBox="0 0 67.77 67.56">
  <path d="M58.7 48.35A5.72 5.72 0 0 0 56.09 45l-11.61-7a4.56 4.56 0 0 0-2.42-.71A4.86 4.86 0 0 0 38 39.66c-.5.74-1 1.51-1.45 2.27l-.39.62a2.83 2.83 0 0 0-.17.27 1 1 0 0 1-.26-.15 37.65 37.65 0 0 1-7.31-6.58 41.94 41.94 0 0 1-5.66-8.46c-.18-.35-.15-.37.08-.57l.62-.53q.87-.72 1.74-1.47a6.23 6.23 0 0 0 1.55-7.5q-3-6.75-6-13.48A5.4 5.4 0 0 0 17.27.94a4.65 4.65 0 0 0-4 .87c-2.61 2-5.17 3.94-7.6 5.89a8.7 8.7 0 0 0-3.22 7.23A56.7 56.7 0 0 0 3 20.86a36.19 36.19 0 0 0 1.72 6.88 60.08 60.08 0 0 0 6.82 14 67.4 67.4 0 0 0 8.69 10.76 54.07 54.07 0 0 0 9.7 7.85 34 34 0 0 0 12.36 5.15c1 .18 2 .3 2.84.4l.87.1a7.67 7.67 0 0 0 7.09-3.87c.44-.7.85-1.42 1.26-2.15l1.49-2.59c.8-1.37 1.6-2.74 2.36-4.14a6.12 6.12 0 0 0 .5-4.9Zm-12.15 12a25.44 25.44 0 0 1-7.47-1.54 41.54 41.54 0 0 1-10.7-6.27 59.94 59.94 0 0 1-12.94-14.46A55.71 55.71 0 0 1 10 27.39a40 40 0 0 1-1.78-5.93A37 37 0 0 1 7.49 15a3.31 3.31 0 0 1 1.28-2.84c2.18-1.7 4.37-3.38 6.56-5.06l.67-.56.13-.09a1.52 1.52 0 0 1 .2.36L22.24 20c.15.34.12.36-.09.55l-1.47 1.24-.91.77a6.26 6.26 0 0 0-1.44 7.65 46.11 46.11 0 0 0 7.57 11 41.78 41.78 0 0 0 7.29 6.3 4.81 4.81 0 0 0 3.7.81 5.23 5.23 0 0 0 3.29-2.42l1.67-2.66a2.05 2.05 0 0 0 .16-.24l.23.11 11.4 6.82c.25.15.4.28.14.74l-.6 1c-1.39 2.43-2.77 4.86-4.18 7.27a2.57 2.57 0 0 1-2.45 1.42Z" data-name="Capa 1" style="fill:#000000"/>
</svg>
