<svg width="85" height="85" viewBox="0 0 85 85" fill="none" xmlns="http://www.w3.org/2000/svg">
<g clip-path="url(#clip0_314_22)">
<path d="M83.09 39.66C82.5189 39.3585 81.8723 39.23 81.2293 39.2904C80.5864 39.3508 79.975 39.5974 79.47 40C79.0023 40.372 78.6323 40.8523 78.3918 41.3994C78.1514 41.9465 78.0478 42.5439 78.09 43.14C78.0695 47.2838 77.3005 51.3897 75.82 55.26C73.8584 60.4236 70.7147 65.0559 66.6408 68.786C62.5669 72.5161 57.6761 75.2401 52.36 76.74C50.3311 77.3065 48.2565 77.6947 46.16 77.9C39.7897 78.5106 33.3732 77.379 27.5961 74.6261C21.819 71.8731 16.8984 67.6023 13.36 62.27H14.08C15.32 62.27 16.6 62.27 17.86 62.27C18.3945 62.2719 18.9243 62.17 19.42 61.97C20.1508 61.6496 20.7456 61.0823 21.1003 60.3674C21.4549 59.6526 21.5469 58.8358 21.36 58.06C21.183 57.2882 20.745 56.6011 20.1201 56.1147C19.4953 55.6282 18.7217 55.3723 17.93 55.39C14.83 55.39 11.73 55.39 8.63001 55.39H6.22001C5.71001 55.39 5.22001 55.39 4.71001 55.39C3.96655 55.3942 3.24519 55.6433 2.65765 56.0989C2.07011 56.5544 1.64916 57.191 1.46001 57.91C1.35736 58.3456 1.31364 58.7929 1.33001 59.24C1.33001 63.52 1.33001 67.8 1.33001 72.08C1.32703 72.5411 1.41731 72.998 1.59544 73.4233C1.77356 73.8486 2.03585 74.2335 2.36652 74.5548C2.6972 74.8762 3.08944 75.1273 3.51966 75.2932C3.94988 75.4591 4.4092 75.5362 4.87001 75.52C5.32045 75.5097 5.76438 75.4102 6.17614 75.2273C6.5879 75.0444 6.95934 74.7817 7.26897 74.4544C7.57861 74.1271 7.82032 73.7417 7.98012 73.3204C8.13993 72.8991 8.21466 72.4504 8.20001 72C8.20001 70.42 8.20001 68.83 8.20001 67.24V66.91C12.6419 73.2709 18.748 78.2872 25.85 81.41C30.3459 83.3898 35.1568 84.5579 40.06 84.86C40.97 84.92 41.89 84.95 42.8 84.95C45.3662 84.9544 47.9272 84.72 50.45 84.25C53.5062 83.7049 56.4892 82.809 59.34 81.58C68.014 77.8886 75.2001 71.3961 79.75 63.14C81.9374 59.2154 83.4677 54.9591 84.28 50.54C84.747 47.9963 84.9879 45.4162 85 42.83C85.027 42.1727 84.8603 41.5219 84.5208 40.9584C84.1813 40.3948 83.6838 39.9434 83.09 39.66Z" fill="black"/>
<path d="M3.99986 46.19C4.2657 46.1892 4.53064 46.159 4.78986 46.1C5.53069 45.9296 6.19395 45.518 6.67542 44.9297C7.15689 44.3414 7.4293 43.6099 7.44985 42.85C7.46873 40.9858 7.61238 39.125 7.87986 37.28C8.95523 30.3586 12.0648 23.9134 16.8132 18.7641C21.5616 13.6148 27.7342 9.99407 34.546 8.36242C41.3577 6.73077 48.5009 7.16191 55.0669 9.60102C61.633 12.0401 67.3253 16.377 71.4199 22.06H70.1299C68.5299 22.06 66.8699 22.06 65.2399 22.06C64.3604 22.1186 63.5369 22.5125 62.9394 23.1605C62.3419 23.8085 62.0159 24.6611 62.0287 25.5425C62.0416 26.4238 62.3922 27.2666 63.0083 27.8969C63.6245 28.5273 64.459 28.8971 65.3399 28.93H79.1699C79.6351 28.9382 80.0974 28.854 80.53 28.6824C80.9625 28.5107 81.3568 28.255 81.6899 27.93C82.3362 27.275 82.6959 26.3902 82.6899 25.47C82.6899 23.15 82.6899 20.79 82.6899 18.52C82.6899 17.52 82.6899 16.52 82.6899 15.59V14.45C82.6899 13.45 82.6899 12.51 82.6899 11.54C82.6767 11.0883 82.5747 10.6435 82.3897 10.2312C82.2047 9.81885 81.9403 9.44699 81.6116 9.13684C81.2829 8.8267 80.8963 8.58433 80.4739 8.42359C80.0515 8.26284 79.6016 8.18687 79.1499 8.2C78.6981 8.21313 78.2534 8.31512 77.841 8.50012C77.4287 8.68513 77.0568 8.94954 76.7467 9.27826C76.1203 9.94214 75.7833 10.8277 75.8099 11.74C75.8099 13.08 75.8099 14.42 75.8099 15.74V16.42C74.7261 15.0512 73.5536 13.755 72.2999 12.54C66.8566 7.21885 60.0727 3.47269 52.6699 1.7C49.3968 0.903241 46.0385 0.510316 42.6699 0.530001C37.7888 0.54171 32.9468 1.40115 28.3599 3.07C24.2173 4.56827 20.339 6.71501 16.8699 9.43C11.7988 13.3534 7.69452 18.3869 4.87233 24.144C2.05014 29.9011 0.585136 36.2284 0.589855 42.64C0.606705 43.213 0.74653 43.7757 0.999855 44.29C1.27349 44.8546 1.69928 45.3315 2.2293 45.6672C2.75931 46.0029 3.37251 46.1839 3.99986 46.19Z" fill="black"/>
</g>
<defs>
<clipPath id="clip0_314_22">
<rect width="84.77" height="84.56" fill="white"/>
</clipPath>
</defs>
</svg>
