<svg width="20" height="25" viewBox="0 0 20 25" fill="none" xmlns="http://www.w3.org/2000/svg">
<path d="M3.4835 10.1667H5.736V17.25C5.736 18.0292 6.3735 18.6667 7.15266 18.6667H12.8193C13.5985 18.6667 14.236 18.0292 14.236 17.25V10.1667H16.4885C17.7493 10.1667 18.3868 8.63667 17.4943 7.74417L10.9918 1.24167C10.4393 0.689167 9.54683 0.689167 8.99433 1.24167L2.49183 7.74417C1.59933 8.63667 2.22266 10.1667 3.4835 10.1667ZM0.0834961 22.9167C0.0834961 23.6958 0.720996 24.3333 1.50016 24.3333H18.5002C19.2793 24.3333 19.9168 23.6958 19.9168 22.9167C19.9168 22.1375 19.2793 21.5 18.5002 21.5H1.50016C0.720996 21.5 0.0834961 22.1375 0.0834961 22.9167Z" fill="#014EFF"/>
</svg>
